<?xml version="1.0" encoding="utf-8"?>
<!-- Generator: Adobe Illustrator 26.2.1, SVG Export Plug-In . SVG Version: 6.00 Build 0)  -->
<svg version="1.1" id="lightning-bolt" xmlns="http://www.w3.org/2000/svg" xmlns:xlink="http://www.w3.org/1999/xlink" x="0px"
	 y="0px" viewBox="0 0 62 100" style="enable-background:new 0 0 62 100;" xml:space="preserve">
<style type="text/css">
	.st0{fill:#FFFFFF;}
</style>
<path class="st0" d="M61.5,0.3C61.4,0.1,61.2,0,61,0h0L24.9,0.1c-0.2,0-0.3,0.1-0.4,0.2c-1.6,2.6-3.2,5.3-4.7,8
	c-1.1,1.9-1.5,2.8-4.7,8.9L14.7,18c0,0.1-3.4,6.7-6.9,15.6C7.3,35,7.1,36.5,7.2,38c0.1,0.8,0.2,1.8,0.9,2.8c0.5,0.8,1.3,1.4,2.3,1.8
	l2.8,0.8c-1.2,2.4-2.3,4.9-3.3,7.4c-1.4,3.4-2.7,6.9-3.8,10.3c-0.6,1.5-1,3-1.2,4.5c-0.2,1-0.2,1.9,0,3c0.1,0.6,0.3,1.4,0.9,2
	C6,70.8,6.4,71.1,8,71.7c0.5,0.2,0.9,0.3,1.3,0.4c-1.1,2.6-2.2,5.3-3.2,8c-0.9,2.6-1.9,5.6-2.8,8.5c-1,3.5-2,7.1-2.8,10.7
	c-0.1,0.3,0.1,0.5,0.4,0.6c0,0,0.1,0,0.1,0c0.2,0,0.4-0.1,0.5-0.3c1.4-3.9,3.1-7.7,5.1-11.4c1.4-2.6,3-5.2,4.5-7.5
	C14.7,75.5,18,72,20,69.9c4.5-4.8,8.7-8.2,13-11.8c1.3-1.1,2.4-2,3.1-2.6c0.5-0.4,0.9-0.8,1.3-1.3c0.3-0.5,0.6-0.9,0.7-1.4
	c0.1-0.3,0.2-0.8,0-1.3c-0.2-0.4-0.5-0.6-0.8-0.8c-1-0.6-1.7-0.8-1.7-0.9c-0.8-0.2-2.1-0.7-3.8-1.3c3.7-4.5,7.6-8.9,11.4-13.3
	c2.5-2.8,5-5.6,7.5-8.3c0.4-0.5,0.7-0.9,1-1.4c0.5-0.8,0.8-1.3,0.9-2c0-0.3,0.1-1-0.2-1.9c-0.3-0.7-0.8-1.1-1.1-1.4
	c-0.6-0.5-1.1-0.7-1.5-0.9c-0.6-0.3-1.1-0.4-1.3-0.4c-0.8-0.2-2-0.6-3.8-1.1c2.6-2.7,5.2-5.5,7.8-8.1c2.9-3,5.9-6,8.9-8.9
	C61.5,0.7,61.5,0.5,61.5,0.3z"/>
</svg>
