<?xml version="1.0" encoding="utf-8"?>
<!-- Generator: Adobe Illustrator 26.2.1, SVG Export Plug-In . SVG Version: 6.00 Build 0)  -->
<svg version="1.1" xmlns="http://www.w3.org/2000/svg" xmlns:xlink="http://www.w3.org/1999/xlink" x="0px" y="0px"
	 viewBox="0 0 841.9 595.3" style="enable-background:new 0 0 841.9 595.3;" xml:space="preserve">
<style type="text/css">
	.st0{fill:#77AAD7;}
	.st1{fill:#CE472B;}
	.st2{fill:#E04B28;}
	.st3{fill:#F05123;}
	.st4{fill:none;stroke:#40403F;stroke-width:3;stroke-miterlimit:10;}
	.st5{opacity:0.45;fill:#FFFFFF;}
	.st6{fill:#EAEAEA;}
	.st7{fill:#FFFFFF;}
	.st8{fill:none;stroke:#FFFFFF;stroke-width:2;stroke-miterlimit:10;}
</style>
<g id="background">
	<rect class="st0" width="841.9" height="595.3"/>
</g>
<g id="snowglobe">
	<path class="st1" d="M598.9,486c4.8,4,7.4,8.2,7.4,12.5c0,24.6-83,44.6-185.4,44.6s-185.4-20-185.4-44.6c0-4.3,2.6-8.5,7.4-12.5"/>
	<path class="st2" d="M595.3,429.1C595.3,429.1,595.3,429.1,595.3,429.1c7.2,4.8,11,9.9,11,15.2l0,0v29.3l0,0
		c0,24.6-83,44.6-185.4,44.6s-185.4-20-185.4-44.6c0,0,0-29.3,0-29.3l0,0c0-5.3,3.9-10.4,11-15.2c0,0,0,0,0,0"/>
	<ellipse class="st3" cx="420.9" cy="417" rx="185.4" ry="47.7"/>
	<line class="st4" x1="595.3" y1="429.1" x2="595.3" y2="429"/>
	<line class="st4" x1="246.6" y1="429.1" x2="246.6" y2="429"/>
	<path class="st4" d="M479.6,456.2C479.6,456.2,479.6,456.2,479.6,456.2"/>
	<path class="st5" d="M544.2,103.2c-31.5-31.6-75.1-51.1-123.3-51.1c-96.3,0-174.3,78.1-174.3,174.3v172.2v0.4
		c0,7.4,7.1,14.4,19.7,20.6c29.1,14.3,87.4,24,154.7,24s125.6-9.7,154.7-24c12.6-6.2,19.7-13.2,19.7-20.6v-0.4V226.5
		C595.3,178.4,575.8,134.8,544.2,103.2z"/>
	<path class="st6" d="M595.3,370.7c0,16.2,0,10.3,0,26.5c-0.2,1.8-0.8,4.9-2.7,8.1c-2.5,4.3-5.9,6.6-7.7,7.7c0,0,0,0,0,0
		c-8.1,5.9-20.6,11.3-36.4,15.8c-19.6,5.6-44.5,9.9-72.4,12.4c0,0,0,0,0,0c-17.3,1.5-35.9,2.4-55.1,2.4c-19.3,0-37.8-0.8-55.1-2.4
		c-28-2.5-52.8-6.8-72.4-12.4c-15.8-4.5-28.3-9.9-36.4-15.8c0,0,0,0,0,0c-7.6-5-10.2-10.5-10.4-15.8c0-16,0-9.7,0-25.7"/>
	<ellipse class="st7" cx="420.9" cy="370.7" rx="174.3" ry="41.9"/>
	<path class="st8" d="M544.2,103.2c-31.5-31.6-75.1-51.1-123.3-51.1c-96.3,0-174.3,78.1-174.3,174.3v172.2v0.4
		c0,7.4,7.1,14.4,19.7,20.6c29.1,14.3,87.4,24,154.7,24s125.6-9.7,154.7-24c12.6-6.2,19.7-13.2,19.7-20.6v-0.4V226.5
		C595.3,178.4,575.8,134.8,544.2,103.2z"/>
</g>
<g id="globe_stand">
</g>
</svg>
